<svg version="1.1" xmlns="http://www.w3.org/2000/svg" fill-rule="evenodd" clip-rule="evenodd" height="1024" width="1024" viewBox="0 0 1024 1024"><path d="M741.31456 552.56064l59.02336 40.20224c10.82368 7.3728 10.82368 23.32672 0 30.69952l-247.74656 168.7552c-6.30784 4.3008-14.60224 4.3008-20.91008 0l-247.74656-168.7552c-10.82368-7.3728-10.82368-23.32672 0-30.69952l59.02336-40.20224c6.30784-4.3008 14.60224-4.3008 20.91008 0l167.80288 114.29888c6.30784 4.3008 14.60224 4.3008 20.91008 0l167.80288-114.29888C726.71232 548.25984 735.00672 548.25984 741.31456 552.56064zM527.0528 128.04096 198.6048 351.76448c-15.616 10.63936-15.616 33.65888 0 44.29824l154.8288 105.46176 173.62944 118.272c9.10336 6.20544 21.07392 6.20544 30.17728 0l173.62944-118.272 154.8288-105.46176c15.616-10.63936 15.616-33.65888 0-44.29824L557.23008 128.04096C548.12672 121.83552 536.15616 121.83552 527.0528 128.04096zM173.6704 417.83296c-17.52064 0-31.71328 14.20288-31.71328 31.71328s14.20288 31.71328 31.71328 31.71328 31.71328-14.20288 31.71328-31.71328S191.19104 417.83296 173.6704 417.83296zM174.98112 503.21408l-2.6112 0-33.54624 389.67296c-0.93184 10.8544 7.61856 20.1728 18.51392 20.1728l32.68608 0c10.89536 0 19.44576-9.32864 18.51392-20.1728L174.98112 503.21408z"></path></svg>