<svg version="1.1" xmlns="http://www.w3.org/2000/svg" fill-rule="evenodd" clip-rule="evenodd" height="1024" width="1024" viewBox="0 0 1024 1024"><path d="M921.5 391.3v148.2l31.2 31.2-65.1 67.7-65.9-65.7 45.1-41v-117c-191.4 78.9-252.7 103.4-295.2 122.6-42.4 19.1-73 19.1-115.1 3.2-42.1-15.9-242.5-89-342-136.6-66.4-31.8-70.7-51.9 1.1-78.9 93.7-35.6 248.6-92.6 330.7-123.7 48.6-19.7 74.3-30.4 118.9-8 79.7 32.9 261.7 101.2 352.2 138.6 79 34.3 26 45.6 4.1 59.4M580.9 595.9c46.3-19.1 108.7-50.7 176.7-79.8v234s-88 93.6-242.7 93.6c-166.6 0-256.6-93.6-256.6-93.6V531.7c52.5 21.4 111.5 39.8 182.9 64.2 44 15.7 99.8 21.1 139.7 0m0 0"></path></svg>